<svg xmlns="http://www.w3.org/2000/svg" xmlns:xlink="http://www.w3.org/1999/xlink" width="500" zoomAndPan="magnify" viewBox="0 0 375 374.999991" height="500" preserveAspectRatio="xMidYMid meet" version="1.0"><defs><g/><clipPath id="id1"><path d="M 113 57.667969 L 262 57.667969 L 262 130 L 113 130 Z M 113 57.667969 " clip-rule="nonzero"/></clipPath><clipPath id="id2"><path d="M 113 133 L 243 133 L 243 187.417969 L 113 187.417969 Z M 113 133 " clip-rule="nonzero"/></clipPath></defs><path stroke-linecap="round" transform="matrix(0.748782, 0, 0, 0.631579, 98.019548, 226.132221)" fill="none" stroke-linejoin="miter" d="M 0.500791 0.000936303 L 220.863778 0.000936303 " stroke="#000000" stroke-width="1" stroke-opacity="1" stroke-miterlimit="4"/><path stroke-linecap="round" transform="matrix(2.995129, 0, 0, 3, 98.019548, 221.809437)" fill="none" stroke-linejoin="miter" d="M 0.499503 -0.000281228 L 54.84164 -0.000281228 " stroke="#393939" stroke-width="1" stroke-opacity="1" stroke-miterlimit="4"/><g fill="#061bb0" fill-opacity="1"><g transform="translate(118.694909, 239.734671)"><g><path d="M 0.359375 0 L 0.359375 -7.96875 L 3.546875 -7.96875 L 3.546875 -6.421875 L 1.953125 -6.421875 L 1.953125 -5.15625 L 3.46875 -5.15625 L 3.46875 -3.625 L 1.953125 -3.625 L 1.953125 0 Z M 0.359375 0 "/></g></g></g><g fill="#061bb0" fill-opacity="1"><g transform="translate(124.277808, 239.734671)"><g><path d="M 2.203125 0.078125 C 1.546875 0.078125 1.054688 -0.109375 0.734375 -0.484375 C 0.421875 -0.859375 0.265625 -1.410156 0.265625 -2.140625 L 0.265625 -7.96875 L 1.8125 -7.96875 L 1.8125 -2.203125 C 1.8125 -1.941406 1.832031 -1.738281 1.875 -1.59375 C 1.925781 -1.457031 2.035156 -1.390625 2.203125 -1.390625 C 2.359375 -1.390625 2.460938 -1.457031 2.515625 -1.59375 C 2.566406 -1.738281 2.59375 -1.941406 2.59375 -2.203125 L 2.59375 -7.96875 L 4.140625 -7.96875 L 4.140625 -2.140625 C 4.140625 -1.410156 3.976562 -0.859375 3.65625 -0.484375 C 3.34375 -0.109375 2.859375 0.078125 2.203125 0.078125 Z M 2.203125 0.078125 "/></g></g></g><g fill="#061bb0" fill-opacity="1"><g transform="translate(130.555925, 239.734671)"><g><path d="M 1.046875 0 L 1.046875 -6.4375 L 0.09375 -6.4375 L 0.09375 -7.96875 L 3.578125 -7.96875 L 3.578125 -6.4375 L 2.640625 -6.4375 L 2.640625 0 Z M 1.046875 0 "/></g></g></g><g fill="#061bb0" fill-opacity="1"><g transform="translate(136.111016, 239.734671)"><g><path d="M 2.203125 0.078125 C 1.546875 0.078125 1.054688 -0.109375 0.734375 -0.484375 C 0.421875 -0.859375 0.265625 -1.410156 0.265625 -2.140625 L 0.265625 -7.96875 L 1.8125 -7.96875 L 1.8125 -2.203125 C 1.8125 -1.941406 1.832031 -1.738281 1.875 -1.59375 C 1.925781 -1.457031 2.035156 -1.390625 2.203125 -1.390625 C 2.359375 -1.390625 2.460938 -1.457031 2.515625 -1.59375 C 2.566406 -1.738281 2.59375 -1.941406 2.59375 -2.203125 L 2.59375 -7.96875 L 4.140625 -7.96875 L 4.140625 -2.140625 C 4.140625 -1.410156 3.976562 -0.859375 3.65625 -0.484375 C 3.34375 -0.109375 2.859375 0.078125 2.203125 0.078125 Z M 2.203125 0.078125 "/></g></g></g><g fill="#061bb0" fill-opacity="1"><g transform="translate(142.389132, 239.734671)"><g><path d="M 0.359375 -7.96875 L 2.796875 -7.96875 C 3.191406 -7.96875 3.492188 -7.878906 3.703125 -7.703125 C 3.921875 -7.523438 4.066406 -7.273438 4.140625 -6.953125 C 4.210938 -6.640625 4.25 -6.238281 4.25 -5.75 C 4.25 -5.289062 4.1875 -4.9375 4.0625 -4.6875 C 3.945312 -4.4375 3.75 -4.257812 3.46875 -4.15625 C 3.707031 -4.101562 3.878906 -3.984375 3.984375 -3.796875 C 4.097656 -3.609375 4.15625 -3.347656 4.15625 -3.015625 L 4.125 0 L 2.578125 0 L 2.578125 -3.125 C 2.578125 -3.34375 2.53125 -3.484375 2.4375 -3.546875 C 2.351562 -3.609375 2.195312 -3.640625 1.96875 -3.640625 L 1.96875 0 L 0.359375 0 Z M 2.359375 -5.015625 C 2.578125 -5.015625 2.6875 -5.257812 2.6875 -5.75 C 2.6875 -5.957031 2.675781 -6.113281 2.65625 -6.21875 C 2.644531 -6.320312 2.613281 -6.394531 2.5625 -6.4375 C 2.507812 -6.476562 2.4375 -6.5 2.34375 -6.5 L 1.984375 -6.5 L 1.984375 -5.015625 Z M 2.359375 -5.015625 "/></g></g></g><g fill="#061bb0" fill-opacity="1"><g transform="translate(148.695058, 239.734671)"><g><path d="M 0.359375 0 L 0.359375 -7.96875 L 3.546875 -7.96875 L 3.546875 -6.4375 L 1.984375 -6.4375 L 1.984375 -4.875 L 3.484375 -4.875 L 3.484375 -3.375 L 1.984375 -3.375 L 1.984375 -1.546875 L 3.640625 -1.546875 L 3.640625 0 Z M 0.359375 0 "/></g></g></g><g fill="#061bb0" fill-opacity="1"><g transform="translate(154.398464, 239.734671)"><g/></g></g><g fill="#061bb0" fill-opacity="1"><g transform="translate(158.451884, 239.734671)"><g><path d="M 0.359375 0 L 0.359375 -7.96875 L 3.546875 -7.96875 L 3.546875 -6.421875 L 1.953125 -6.421875 L 1.953125 -5.15625 L 3.46875 -5.15625 L 3.46875 -3.625 L 1.953125 -3.625 L 1.953125 0 Z M 0.359375 0 "/></g></g></g><g fill="#061bb0" fill-opacity="1"><g transform="translate(164.034784, 239.734671)"><g><path d="M 0.140625 0 L 0.90625 -7.96875 L 3.609375 -7.96875 L 4.375 0 L 2.859375 0 L 2.75 -1.296875 L 1.78125 -1.296875 L 1.6875 0 Z M 1.90625 -2.5625 L 2.625 -2.5625 L 2.28125 -6.625 L 2.203125 -6.625 Z M 1.90625 -2.5625 "/></g></g></g><g fill="#061bb0" fill-opacity="1"><g transform="translate(170.414853, 239.734671)"><g><path d="M 0.359375 0 L 0.359375 -7.96875 L 2.78125 -7.96875 L 3.453125 -3.109375 L 4.125 -7.96875 L 6.578125 -7.96875 L 6.578125 0 L 5.109375 0 L 5.109375 -5.75 L 4.1875 0 L 2.765625 0 L 1.796875 -5.75 L 1.796875 0 Z M 0.359375 0 "/></g></g></g><g fill="#061bb0" fill-opacity="1"><g transform="translate(179.214272, 239.734671)"><g><path d="M 0.28125 0 L 0.28125 -7.96875 L 1.8125 -7.96875 L 1.8125 0 Z M 0.28125 0 "/></g></g></g><g fill="#061bb0" fill-opacity="1"><g transform="translate(183.202801, 239.734671)"><g><path d="M 0.359375 0 L 0.359375 -7.96875 L 1.953125 -7.96875 L 1.953125 -1.359375 L 3.59375 -1.359375 L 3.59375 0 Z M 0.359375 0 "/></g></g></g><g fill="#061bb0" fill-opacity="1"><g transform="translate(188.767158, 239.734671)"><g><path d="M 1.3125 0 L 1.3125 -2.625 L 0.046875 -7.96875 L 1.625 -7.96875 L 2.0625 -5.265625 L 2.515625 -7.96875 L 4.09375 -7.96875 L 2.828125 -2.625 L 2.828125 0 Z M 1.3125 0 "/></g></g></g><g fill="#061bb0" fill-opacity="1"><g transform="translate(194.78572, 239.734671)"><g/></g></g><g fill="#061bb0" fill-opacity="1"><g transform="translate(198.839137, 239.734671)"><g><path d="M 0.359375 -7.96875 L 2.546875 -7.96875 C 3.117188 -7.96875 3.546875 -7.8125 3.828125 -7.5 C 4.117188 -7.1875 4.265625 -6.71875 4.265625 -6.09375 L 4.28125 -2.359375 C 4.289062 -1.578125 4.15625 -0.988281 3.875 -0.59375 C 3.601562 -0.195312 3.144531 0 2.5 0 L 0.359375 0 Z M 2.234375 -1.40625 C 2.523438 -1.40625 2.671875 -1.550781 2.671875 -1.84375 L 2.671875 -5.953125 C 2.671875 -6.128906 2.65625 -6.257812 2.625 -6.34375 C 2.601562 -6.4375 2.550781 -6.5 2.46875 -6.53125 C 2.394531 -6.5625 2.285156 -6.578125 2.140625 -6.578125 L 1.953125 -6.578125 L 1.953125 -1.40625 Z M 2.234375 -1.40625 "/></g></g></g><g fill="#061bb0" fill-opacity="1"><g transform="translate(205.293364, 239.734671)"><g><path d="M 2.25 0.078125 C 1.613281 0.078125 1.125 -0.117188 0.78125 -0.515625 C 0.445312 -0.910156 0.28125 -1.460938 0.28125 -2.171875 L 0.28125 -5.96875 C 0.28125 -6.65625 0.445312 -7.171875 0.78125 -7.515625 C 1.125 -7.867188 1.613281 -8.046875 2.25 -8.046875 C 2.894531 -8.046875 3.382812 -7.867188 3.71875 -7.515625 C 4.050781 -7.171875 4.21875 -6.65625 4.21875 -5.96875 L 4.21875 -2.171875 C 4.21875 -1.453125 4.050781 -0.894531 3.71875 -0.5 C 3.382812 -0.113281 2.894531 0.078125 2.25 0.078125 Z M 2.25 -1.390625 C 2.394531 -1.390625 2.492188 -1.453125 2.546875 -1.578125 C 2.597656 -1.703125 2.625 -1.875 2.625 -2.09375 L 2.625 -6 C 2.625 -6.164062 2.597656 -6.300781 2.546875 -6.40625 C 2.503906 -6.519531 2.410156 -6.578125 2.265625 -6.578125 C 1.992188 -6.578125 1.859375 -6.378906 1.859375 -5.984375 L 1.859375 -2.09375 C 1.859375 -1.863281 1.882812 -1.6875 1.9375 -1.5625 C 2 -1.445312 2.101562 -1.390625 2.25 -1.390625 Z M 2.25 -1.390625 "/></g></g></g><g fill="#061bb0" fill-opacity="1"><g transform="translate(211.682703, 239.734671)"><g><path d="M 2.203125 0.078125 C 1.628906 0.078125 1.164062 -0.101562 0.8125 -0.46875 C 0.457031 -0.832031 0.28125 -1.335938 0.28125 -1.984375 L 0.28125 -5.65625 C 0.28125 -6.445312 0.4375 -7.039062 0.75 -7.4375 C 1.070312 -7.84375 1.570312 -8.046875 2.25 -8.046875 C 2.832031 -8.046875 3.300781 -7.882812 3.65625 -7.5625 C 4.019531 -7.238281 4.203125 -6.773438 4.203125 -6.171875 L 4.203125 -4.796875 L 2.625 -4.796875 L 2.625 -5.984375 C 2.625 -6.210938 2.59375 -6.367188 2.53125 -6.453125 C 2.476562 -6.535156 2.382812 -6.578125 2.25 -6.578125 C 2.101562 -6.578125 2.003906 -6.523438 1.953125 -6.421875 C 1.898438 -6.328125 1.875 -6.1875 1.875 -6 L 1.875 -2 C 1.875 -1.789062 1.90625 -1.632812 1.96875 -1.53125 C 2.03125 -1.4375 2.125 -1.390625 2.25 -1.390625 C 2.5 -1.390625 2.625 -1.59375 2.625 -2 L 2.625 -3.4375 L 4.21875 -3.4375 L 4.21875 -1.9375 C 4.21875 -0.59375 3.546875 0.078125 2.203125 0.078125 Z M 2.203125 0.078125 "/></g></g></g><g fill="#061bb0" fill-opacity="1"><g transform="translate(217.960817, 239.734671)"><g><path d="M 1.046875 0 L 1.046875 -6.4375 L 0.09375 -6.4375 L 0.09375 -7.96875 L 3.578125 -7.96875 L 3.578125 -6.4375 L 2.640625 -6.4375 L 2.640625 0 Z M 1.046875 0 "/></g></g></g><g fill="#061bb0" fill-opacity="1"><g transform="translate(223.515905, 239.734671)"><g><path d="M 2.25 0.078125 C 1.613281 0.078125 1.125 -0.117188 0.78125 -0.515625 C 0.445312 -0.910156 0.28125 -1.460938 0.28125 -2.171875 L 0.28125 -5.96875 C 0.28125 -6.65625 0.445312 -7.171875 0.78125 -7.515625 C 1.125 -7.867188 1.613281 -8.046875 2.25 -8.046875 C 2.894531 -8.046875 3.382812 -7.867188 3.71875 -7.515625 C 4.050781 -7.171875 4.21875 -6.65625 4.21875 -5.96875 L 4.21875 -2.171875 C 4.21875 -1.453125 4.050781 -0.894531 3.71875 -0.5 C 3.382812 -0.113281 2.894531 0.078125 2.25 0.078125 Z M 2.25 -1.390625 C 2.394531 -1.390625 2.492188 -1.453125 2.546875 -1.578125 C 2.597656 -1.703125 2.625 -1.875 2.625 -2.09375 L 2.625 -6 C 2.625 -6.164062 2.597656 -6.300781 2.546875 -6.40625 C 2.503906 -6.519531 2.410156 -6.578125 2.265625 -6.578125 C 1.992188 -6.578125 1.859375 -6.378906 1.859375 -5.984375 L 1.859375 -2.09375 C 1.859375 -1.863281 1.882812 -1.6875 1.9375 -1.5625 C 2 -1.445312 2.101562 -1.390625 2.25 -1.390625 Z M 2.25 -1.390625 "/></g></g></g><g fill="#061bb0" fill-opacity="1"><g transform="translate(229.905244, 239.734671)"><g><path d="M 0.359375 -7.96875 L 2.796875 -7.96875 C 3.191406 -7.96875 3.492188 -7.878906 3.703125 -7.703125 C 3.921875 -7.523438 4.066406 -7.273438 4.140625 -6.953125 C 4.210938 -6.640625 4.25 -6.238281 4.25 -5.75 C 4.25 -5.289062 4.1875 -4.9375 4.0625 -4.6875 C 3.945312 -4.4375 3.75 -4.257812 3.46875 -4.15625 C 3.707031 -4.101562 3.878906 -3.984375 3.984375 -3.796875 C 4.097656 -3.609375 4.15625 -3.347656 4.15625 -3.015625 L 4.125 0 L 2.578125 0 L 2.578125 -3.125 C 2.578125 -3.34375 2.53125 -3.484375 2.4375 -3.546875 C 2.351562 -3.609375 2.195312 -3.640625 1.96875 -3.640625 L 1.96875 0 L 0.359375 0 Z M 2.359375 -5.015625 C 2.578125 -5.015625 2.6875 -5.257812 2.6875 -5.75 C 2.6875 -5.957031 2.675781 -6.113281 2.65625 -6.21875 C 2.644531 -6.320312 2.613281 -6.394531 2.5625 -6.4375 C 2.507812 -6.476562 2.4375 -6.5 2.34375 -6.5 L 1.984375 -6.5 L 1.984375 -5.015625 Z M 2.359375 -5.015625 "/></g></g></g><g fill="#008037" fill-opacity="1"><g transform="translate(107.012086, 215.864151)"><g><path d="M 5.910156 -12.816406 L 0.875 -12.816406 L 0.875 0 L 5.910156 0 C 6.816406 0 7.640625 -0.175781 8.375 -0.542969 C 9.109375 -0.910156 9.71875 -1.398438 10.246094 -1.992188 C 10.769531 -2.585938 11.152344 -3.269531 11.433594 -4.039062 C 11.714844 -4.808594 11.851562 -5.59375 11.851562 -6.398438 C 11.851562 -7.082031 11.730469 -7.796875 11.503906 -8.566406 C 11.257812 -9.316406 10.910156 -10.015625 10.417969 -10.648438 C 9.929688 -11.277344 9.316406 -11.785156 8.566406 -12.203125 C 7.816406 -12.605469 6.921875 -12.816406 5.910156 -12.816406 Z M 5.453125 -1.835938 L 4.527344 -1.835938 L 4.527344 -10.980469 L 5.453125 -10.980469 C 5.910156 -10.980469 6.292969 -10.839844 6.644531 -10.578125 C 6.992188 -10.316406 7.273438 -9.964844 7.5 -9.546875 C 7.726562 -9.109375 7.902344 -8.617188 8.023438 -8.078125 C 8.128906 -7.515625 8.199219 -6.957031 8.199219 -6.398438 C 8.199219 -5.820312 8.128906 -5.261719 8.023438 -4.71875 C 7.902344 -4.160156 7.726562 -3.671875 7.5 -3.25 C 7.273438 -2.832031 6.992188 -2.484375 6.644531 -2.21875 C 6.292969 -1.957031 5.910156 -1.835938 5.453125 -1.835938 Z M 5.453125 -1.835938 "/></g></g></g><g fill="#008037" fill-opacity="1"><g transform="translate(120.257145, 215.864151)"><g><path d="M 0.875 -12.816406 L 0.875 0 L 4.527344 0 L 4.527344 -12.816406 Z M 0.875 -12.816406 "/></g></g></g><g fill="#008037" fill-opacity="1"><g transform="translate(126.530624, 215.864151)"><g><path d="M 10.945312 0 L 8.742188 -6.152344 C 9.265625 -6.433594 9.703125 -6.800781 10.015625 -7.289062 C 10.332031 -7.78125 10.488281 -8.390625 10.488281 -9.160156 C 10.488281 -9.84375 10.351562 -10.417969 10.085938 -10.890625 C 9.808594 -11.347656 9.457031 -11.730469 9.003906 -12.011719 C 8.550781 -12.289062 8.007812 -12.5 7.394531 -12.621094 C 6.785156 -12.746094 6.136719 -12.816406 5.453125 -12.816406 L 0.875 -12.816406 L 0.875 0 L 4.527344 0 L 4.527344 -5.488281 L 5.453125 -5.488281 L 7.273438 0 Z M 4.527344 -7.324219 L 4.527344 -10.980469 C 4.914062 -10.980469 5.246094 -10.925781 5.542969 -10.820312 C 5.839844 -10.714844 6.082031 -10.578125 6.277344 -10.402344 C 6.46875 -10.226562 6.609375 -10.035156 6.714844 -9.824219 C 6.816406 -9.597656 6.871094 -9.371094 6.871094 -9.144531 C 6.871094 -8.898438 6.816406 -8.671875 6.714844 -8.460938 C 6.609375 -8.25 6.46875 -8.058594 6.277344 -7.882812 C 6.082031 -7.710938 5.839844 -7.585938 5.542969 -7.484375 C 5.246094 -7.378906 4.914062 -7.324219 4.527344 -7.324219 Z M 4.527344 -7.324219 "/></g></g></g><g fill="#008037" fill-opacity="1"><g transform="translate(138.867114, 215.864151)"><g><path d="M 9.109375 -2.746094 L 4.527344 -2.746094 L 4.527344 -5.035156 L 8.199219 -5.035156 L 8.199219 -7.78125 L 4.527344 -7.78125 L 4.527344 -10.070312 L 8.652344 -10.070312 L 8.199219 -12.816406 L 0.875 -12.816406 L 0.875 0 L 8.652344 0 Z M 9.109375 -2.746094 "/></g></g></g><g fill="#008037" fill-opacity="1"><g transform="translate(149.718424, 215.864151)"><g><path d="M 6.921875 -1.835938 C 6.46875 -1.835938 6.066406 -1.957031 5.714844 -2.21875 C 5.367188 -2.484375 5.085938 -2.832031 4.859375 -3.269531 C 4.632812 -3.6875 4.457031 -4.179688 4.351562 -4.738281 C 4.230469 -5.28125 4.179688 -5.839844 4.179688 -6.417969 C 4.179688 -6.976562 4.230469 -7.535156 4.351562 -8.078125 C 4.457031 -8.617188 4.632812 -9.109375 4.859375 -9.546875 C 5.085938 -9.964844 5.367188 -10.316406 5.714844 -10.578125 C 6.066406 -10.839844 6.46875 -10.980469 6.921875 -10.980469 C 7.253906 -10.980469 7.570312 -10.890625 7.851562 -10.75 C 8.128906 -10.613281 8.375 -10.453125 8.582031 -10.296875 C 8.8125 -10.085938 9.019531 -9.859375 9.214844 -9.617188 L 10.59375 -10.980469 C 10.296875 -11.3125 9.949219 -11.609375 9.5625 -11.886719 C 9.214844 -12.117188 8.792969 -12.324219 8.269531 -12.515625 C 7.746094 -12.710938 7.148438 -12.816406 6.46875 -12.816406 C 5.472656 -12.816406 4.597656 -12.621094 3.863281 -12.253906 C 3.128906 -11.886719 2.5 -11.398438 2.011719 -10.804688 C 1.519531 -10.191406 1.136719 -9.511719 0.890625 -8.742188 C 0.648438 -7.972656 0.523438 -7.183594 0.523438 -6.382812 C 0.523438 -5.578125 0.648438 -4.789062 0.890625 -4.019531 C 1.136719 -3.25 1.503906 -2.585938 1.992188 -1.992188 C 2.484375 -1.398438 3.113281 -0.910156 3.863281 -0.542969 C 4.597656 -0.175781 5.472656 0 6.46875 0 C 7.148438 0 7.746094 -0.0859375 8.269531 -0.28125 C 8.792969 -0.453125 9.214844 -0.664062 9.5625 -0.910156 C 9.949219 -1.171875 10.296875 -1.484375 10.59375 -1.835938 L 9.214844 -3.199219 C 9.019531 -2.9375 8.8125 -2.710938 8.582031 -2.515625 C 8.375 -2.34375 8.128906 -2.183594 7.851562 -2.046875 C 7.570312 -1.90625 7.253906 -1.835938 6.921875 -1.835938 Z M 6.921875 -1.835938 "/></g></g></g><g fill="#008037" fill-opacity="1"><g transform="translate(161.705457, 215.864151)"><g><path d="M 7.21875 -10.070312 L 10.417969 -10.070312 L 9.964844 -12.816406 L 0.804688 -12.816406 L 0.351562 -10.070312 L 3.550781 -10.070312 L 3.550781 0 L 7.21875 0 Z M 7.21875 -10.070312 "/></g></g></g><g fill="#008037" fill-opacity="1"><g transform="translate(173.343033, 215.864151)"><g/></g></g><g fill="#008037" fill-opacity="1"><g transform="translate(179.459259, 215.864151)"><g><path d="M 5.910156 -12.816406 L 0.875 -12.816406 L 0.875 0 L 5.910156 0 C 6.816406 0 7.640625 -0.175781 8.375 -0.542969 C 9.109375 -0.910156 9.71875 -1.398438 10.246094 -1.992188 C 10.769531 -2.585938 11.152344 -3.269531 11.433594 -4.039062 C 11.714844 -4.808594 11.851562 -5.59375 11.851562 -6.398438 C 11.851562 -7.082031 11.730469 -7.796875 11.503906 -8.566406 C 11.257812 -9.316406 10.910156 -10.015625 10.417969 -10.648438 C 9.929688 -11.277344 9.316406 -11.785156 8.566406 -12.203125 C 7.816406 -12.605469 6.921875 -12.816406 5.910156 -12.816406 Z M 5.453125 -1.835938 L 4.527344 -1.835938 L 4.527344 -10.980469 L 5.453125 -10.980469 C 5.910156 -10.980469 6.292969 -10.839844 6.644531 -10.578125 C 6.992188 -10.316406 7.273438 -9.964844 7.5 -9.546875 C 7.726562 -9.109375 7.902344 -8.617188 8.023438 -8.078125 C 8.128906 -7.515625 8.199219 -6.957031 8.199219 -6.398438 C 8.199219 -5.820312 8.128906 -5.261719 8.023438 -4.71875 C 7.902344 -4.160156 7.726562 -3.671875 7.5 -3.25 C 7.273438 -2.832031 6.992188 -2.484375 6.644531 -2.21875 C 6.292969 -1.957031 5.910156 -1.835938 5.453125 -1.835938 Z M 5.453125 -1.835938 "/></g></g></g><g fill="#008037" fill-opacity="1"><g transform="translate(192.704318, 215.864151)"><g><path d="M 6.382812 -13.234375 C 5.402344 -13.234375 4.546875 -13.023438 3.8125 -12.640625 C 3.078125 -12.253906 2.484375 -11.730469 1.992188 -11.101562 C 1.503906 -10.453125 1.136719 -9.71875 0.890625 -8.917969 C 0.648438 -8.09375 0.523438 -7.253906 0.523438 -6.417969 C 0.523438 -5.542969 0.648438 -4.703125 0.890625 -3.898438 C 1.136719 -3.078125 1.503906 -2.34375 1.992188 -1.714844 C 2.484375 -1.066406 3.078125 -0.542969 3.8125 -0.15625 C 4.546875 0.226562 5.402344 0.417969 6.382812 0.417969 C 7.359375 0.417969 8.199219 0.226562 8.933594 -0.15625 C 9.667969 -0.542969 10.28125 -1.066406 10.769531 -1.714844 C 11.257812 -2.34375 11.625 -3.078125 11.871094 -3.898438 C 12.117188 -4.703125 12.238281 -5.542969 12.238281 -6.417969 C 12.238281 -7.253906 12.117188 -8.09375 11.871094 -8.917969 C 11.625 -9.71875 11.257812 -10.453125 10.769531 -11.101562 C 10.28125 -11.730469 9.667969 -12.253906 8.933594 -12.640625 C 8.199219 -13.023438 7.359375 -13.234375 6.382812 -13.234375 Z M 6.382812 -1.539062 C 6.136719 -1.539062 5.890625 -1.625 5.664062 -1.816406 C 5.417969 -1.992188 5.210938 -2.289062 5.035156 -2.691406 C 4.84375 -3.078125 4.683594 -3.582031 4.582031 -4.195312 C 4.476562 -4.808594 4.421875 -5.542969 4.421875 -6.417969 C 4.421875 -7.253906 4.476562 -7.988281 4.582031 -8.617188 C 4.683594 -9.230469 4.84375 -9.738281 5.035156 -10.140625 C 5.210938 -10.523438 5.417969 -10.820312 5.664062 -11.015625 C 5.890625 -11.1875 6.136719 -11.292969 6.382812 -11.292969 C 6.625 -11.292969 6.851562 -11.1875 7.097656 -11.015625 C 7.324219 -10.820312 7.535156 -10.523438 7.726562 -10.140625 C 7.902344 -9.738281 8.058594 -9.230469 8.164062 -8.617188 C 8.269531 -7.988281 8.339844 -7.253906 8.339844 -6.417969 C 8.339844 -5.542969 8.269531 -4.808594 8.164062 -4.195312 C 8.058594 -3.582031 7.902344 -3.078125 7.726562 -2.691406 C 7.535156 -2.289062 7.324219 -1.992188 7.097656 -1.816406 C 6.851562 -1.625 6.625 -1.539062 6.382812 -1.539062 Z M 6.382812 -1.539062 "/></g></g></g><g fill="#008037" fill-opacity="1"><g transform="translate(206.333773, 215.864151)"><g><path d="M 6.921875 -1.835938 C 6.46875 -1.835938 6.066406 -1.957031 5.714844 -2.21875 C 5.367188 -2.484375 5.085938 -2.832031 4.859375 -3.269531 C 4.632812 -3.6875 4.457031 -4.179688 4.351562 -4.738281 C 4.230469 -5.28125 4.179688 -5.839844 4.179688 -6.417969 C 4.179688 -6.976562 4.230469 -7.535156 4.351562 -8.078125 C 4.457031 -8.617188 4.632812 -9.109375 4.859375 -9.546875 C 5.085938 -9.964844 5.367188 -10.316406 5.714844 -10.578125 C 6.066406 -10.839844 6.46875 -10.980469 6.921875 -10.980469 C 7.253906 -10.980469 7.570312 -10.890625 7.851562 -10.75 C 8.128906 -10.613281 8.375 -10.453125 8.582031 -10.296875 C 8.8125 -10.085938 9.019531 -9.859375 9.214844 -9.617188 L 10.59375 -10.980469 C 10.296875 -11.3125 9.949219 -11.609375 9.5625 -11.886719 C 9.214844 -12.117188 8.792969 -12.324219 8.269531 -12.515625 C 7.746094 -12.710938 7.148438 -12.816406 6.46875 -12.816406 C 5.472656 -12.816406 4.597656 -12.621094 3.863281 -12.253906 C 3.128906 -11.886719 2.5 -11.398438 2.011719 -10.804688 C 1.519531 -10.191406 1.136719 -9.511719 0.890625 -8.742188 C 0.648438 -7.972656 0.523438 -7.183594 0.523438 -6.382812 C 0.523438 -5.578125 0.648438 -4.789062 0.890625 -4.019531 C 1.136719 -3.25 1.503906 -2.585938 1.992188 -1.992188 C 2.484375 -1.398438 3.113281 -0.910156 3.863281 -0.542969 C 4.597656 -0.175781 5.472656 0 6.46875 0 C 7.148438 0 7.746094 -0.0859375 8.269531 -0.28125 C 8.792969 -0.453125 9.214844 -0.664062 9.5625 -0.910156 C 9.949219 -1.171875 10.296875 -1.484375 10.59375 -1.835938 L 9.214844 -3.199219 C 9.019531 -2.9375 8.8125 -2.710938 8.582031 -2.515625 C 8.375 -2.34375 8.128906 -2.183594 7.851562 -2.046875 C 7.570312 -1.90625 7.253906 -1.835938 6.921875 -1.835938 Z M 6.921875 -1.835938 "/></g></g></g><g fill="#008037" fill-opacity="1"><g transform="translate(218.320806, 215.864151)"><g><path d="M 7.21875 -10.070312 L 10.417969 -10.070312 L 9.964844 -12.816406 L 0.804688 -12.816406 L 0.351562 -10.070312 L 3.550781 -10.070312 L 3.550781 0 L 7.21875 0 Z M 7.21875 -10.070312 "/></g></g></g><g fill="#008037" fill-opacity="1"><g transform="translate(229.958382, 215.864151)"><g><path d="M 6.382812 -13.234375 C 5.402344 -13.234375 4.546875 -13.023438 3.8125 -12.640625 C 3.078125 -12.253906 2.484375 -11.730469 1.992188 -11.101562 C 1.503906 -10.453125 1.136719 -9.71875 0.890625 -8.917969 C 0.648438 -8.09375 0.523438 -7.253906 0.523438 -6.417969 C 0.523438 -5.542969 0.648438 -4.703125 0.890625 -3.898438 C 1.136719 -3.078125 1.503906 -2.34375 1.992188 -1.714844 C 2.484375 -1.066406 3.078125 -0.542969 3.8125 -0.15625 C 4.546875 0.226562 5.402344 0.417969 6.382812 0.417969 C 7.359375 0.417969 8.199219 0.226562 8.933594 -0.15625 C 9.667969 -0.542969 10.28125 -1.066406 10.769531 -1.714844 C 11.257812 -2.34375 11.625 -3.078125 11.871094 -3.898438 C 12.117188 -4.703125 12.238281 -5.542969 12.238281 -6.417969 C 12.238281 -7.253906 12.117188 -8.09375 11.871094 -8.917969 C 11.625 -9.71875 11.257812 -10.453125 10.769531 -11.101562 C 10.28125 -11.730469 9.667969 -12.253906 8.933594 -12.640625 C 8.199219 -13.023438 7.359375 -13.234375 6.382812 -13.234375 Z M 6.382812 -1.539062 C 6.136719 -1.539062 5.890625 -1.625 5.664062 -1.816406 C 5.417969 -1.992188 5.210938 -2.289062 5.035156 -2.691406 C 4.84375 -3.078125 4.683594 -3.582031 4.582031 -4.195312 C 4.476562 -4.808594 4.421875 -5.542969 4.421875 -6.417969 C 4.421875 -7.253906 4.476562 -7.988281 4.582031 -8.617188 C 4.683594 -9.230469 4.84375 -9.738281 5.035156 -10.140625 C 5.210938 -10.523438 5.417969 -10.820312 5.664062 -11.015625 C 5.890625 -11.1875 6.136719 -11.292969 6.382812 -11.292969 C 6.625 -11.292969 6.851562 -11.1875 7.097656 -11.015625 C 7.324219 -10.820312 7.535156 -10.523438 7.726562 -10.140625 C 7.902344 -9.738281 8.058594 -9.230469 8.164062 -8.617188 C 8.269531 -7.988281 8.339844 -7.253906 8.339844 -6.417969 C 8.339844 -5.542969 8.269531 -4.808594 8.164062 -4.195312 C 8.058594 -3.582031 7.902344 -3.078125 7.726562 -2.691406 C 7.535156 -2.289062 7.324219 -1.992188 7.097656 -1.816406 C 6.851562 -1.625 6.625 -1.539062 6.382812 -1.539062 Z M 6.382812 -1.539062 "/></g></g></g><g fill="#008037" fill-opacity="1"><g transform="translate(243.587836, 215.864151)"><g><path d="M 10.945312 0 L 8.742188 -6.152344 C 9.265625 -6.433594 9.703125 -6.800781 10.015625 -7.289062 C 10.332031 -7.78125 10.488281 -8.390625 10.488281 -9.160156 C 10.488281 -9.84375 10.351562 -10.417969 10.085938 -10.890625 C 9.808594 -11.347656 9.457031 -11.730469 9.003906 -12.011719 C 8.550781 -12.289062 8.007812 -12.5 7.394531 -12.621094 C 6.785156 -12.746094 6.136719 -12.816406 5.453125 -12.816406 L 0.875 -12.816406 L 0.875 0 L 4.527344 0 L 4.527344 -5.488281 L 5.453125 -5.488281 L 7.273438 0 Z M 4.527344 -7.324219 L 4.527344 -10.980469 C 4.914062 -10.980469 5.246094 -10.925781 5.542969 -10.820312 C 5.839844 -10.714844 6.082031 -10.578125 6.277344 -10.402344 C 6.46875 -10.226562 6.609375 -10.035156 6.714844 -9.824219 C 6.816406 -9.597656 6.871094 -9.371094 6.871094 -9.144531 C 6.871094 -8.898438 6.816406 -8.671875 6.714844 -8.460938 C 6.609375 -8.25 6.46875 -8.058594 6.277344 -7.882812 C 6.082031 -7.710938 5.839844 -7.585938 5.542969 -7.484375 C 5.246094 -7.378906 4.914062 -7.324219 4.527344 -7.324219 Z M 4.527344 -7.324219 "/></g></g></g><g clip-path="url(#id1)"><path fill="#e60012" d="M 260.484375 100.441406 L 244.964844 91.683594 C 244.46875 91.382812 243.835938 91.382812 243.304688 91.683594 C 242.804688 91.980469 242.472656 92.511719 242.472656 93.109375 L 242.472656 98.550781 L 202.761719 98.550781 L 202.761719 67.691406 C 202.761719 62.214844 198.277344 57.734375 192.792969 57.734375 L 164.382812 57.734375 C 158.898438 57.734375 154.414062 62.214844 154.414062 67.691406 L 154.414062 98.550781 L 123.507812 98.550781 C 118.027344 98.550781 113.539062 103.03125 113.539062 108.507812 L 113.539062 129.710938 L 120.1875 129.710938 L 120.1875 108.507812 C 120.1875 106.679688 121.679688 105.1875 123.507812 105.1875 L 157.734375 105.1875 C 159.5625 105.1875 161.058594 103.695312 161.058594 101.871094 L 161.058594 67.691406 C 161.058594 65.863281 162.554688 64.371094 164.382812 64.371094 L 192.792969 64.371094 C 194.621094 64.371094 196.117188 65.863281 196.117188 67.691406 L 196.117188 101.871094 C 196.117188 103.695312 197.613281 105.1875 199.441406 105.1875 L 242.472656 105.1875 L 242.472656 110.628906 C 242.472656 111.226562 242.773438 111.757812 243.304688 112.058594 C 243.570312 112.222656 243.871094 112.289062 244.136719 112.289062 C 244.402344 112.289062 244.699219 112.222656 244.964844 112.089844 L 260.484375 103.328125 C 261.015625 103.03125 261.316406 102.5 261.316406 101.871094 C 261.316406 101.238281 261.015625 100.742188 260.484375 100.441406 Z M 260.484375 100.441406 " fill-opacity="1" fill-rule="nonzero"/></g><g clip-path="url(#id2)"><path fill="#e60012" d="M 241.511719 142.089844 L 225.992188 133.328125 C 225.492188 133.03125 224.863281 133.03125 224.332031 133.328125 C 223.832031 133.628906 223.5 134.15625 223.5 134.753906 L 223.5 140.199219 L 199.441406 140.199219 C 197.613281 140.199219 196.117188 141.691406 196.117188 143.515625 L 196.117188 177.695312 C 196.117188 179.519531 194.621094 181.015625 192.792969 181.015625 L 164.382812 181.015625 C 162.554688 181.015625 161.058594 179.519531 161.058594 177.695312 L 161.058594 143.515625 C 161.058594 141.691406 159.5625 140.199219 157.734375 140.199219 L 113.539062 140.199219 L 113.539062 146.835938 L 154.414062 146.835938 L 154.414062 177.695312 C 154.414062 183.171875 158.898438 187.652344 164.382812 187.652344 L 192.792969 187.652344 C 198.277344 187.652344 202.761719 183.171875 202.761719 177.695312 L 202.761719 146.835938 L 223.5 146.835938 L 223.5 152.277344 C 223.5 152.875 223.796875 153.40625 224.332031 153.703125 C 224.597656 153.871094 224.894531 153.9375 225.160156 153.9375 C 225.425781 153.9375 225.726562 153.871094 225.992188 153.738281 L 241.511719 144.976562 C 242.042969 144.675781 242.339844 144.144531 242.339844 143.515625 C 242.339844 142.886719 242.042969 142.386719 241.511719 142.089844 Z M 241.511719 142.089844 " fill-opacity="1" fill-rule="nonzero"/></g></svg>